<?xml version="1.0" standalone="no"?>
<!DOCTYPE svg PUBLIC "-//W3C//DTD SVG 20010904//EN"
 "http://www.w3.org/TR/2001/REC-SVG-20010904/DTD/svg10.dtd">
<svg version="1.0" xmlns="http://www.w3.org/2000/svg"
 width="400.000000pt" height="400.000000pt" viewBox="0 0 400.000000 400.000000"
 preserveAspectRatio="xMidYMid meet">
<metadata>
Created by potrace 1.11, written by Peter Selinger 2001-2013
</metadata>
<g transform="translate(0.000000,400.000000) scale(0.100000,-0.100000)"
fill="#000000" stroke="none">
<path d="M1810 3944 c-297 -36 -548 -116 -785 -250 -502 -285 -843 -768 -951
-1347 -23 -125 -27 -167 -26 -347 0 -167 4 -227 22 -325 58 -319 159 -561 342
-818 196 -276 484 -510 783 -638 39 -17 79 -34 90 -39 71 -32 237 -79 375
-106 130 -25 465 -31 608 -10 570 84 1046 382 1362 854 33 49 60 93 60 96 0 3
13 28 29 55 16 27 44 83 61 123 17 40 35 82 40 93 32 71 76 228 107 380 15 73
18 137 17 340 0 233 -2 259 -28 380 -25 121 -69 270 -101 340 -7 17 -25 58
-39 91 -36 88 -144 268 -217 366 -80 106 -259 285 -369 369 -243 187 -526 310
-850 371 -102 19 -440 33 -530 22z m409 -164 c383 -49 743 -228 1022 -510 155
-157 299 -382 334 -521 6 -25 5 -26 -54 -32 -70 -8 -101 -23 -102 -52 0 -11
-4 -29 -8 -40 -7 -18 -10 -16 -26 15 -30 60 -147 232 -204 300 -406 489 -1043
684 -1640 504 -196 -60 -441 -194 -441 -241 0 -19 219 -247 420 -439 80 -76
123 -110 140 -111 14 0 35 -4 48 -8 25 -8 30 8 10 29 -7 7 -62 66 -123 132
-60 65 -156 166 -212 225 -64 65 -103 113 -103 126 0 16 19 31 80 62 321 167
691 202 1030 96 500 -156 863 -574 951 -1095 16 -97 16 -324 0 -420 -28 -163
-86 -329 -155 -447 -43 -73 -59 -77 -102 -31 -16 18 -97 98 -180 178 -341 329
-374 358 -374 333 0 -5 22 -29 49 -55 97 -94 145 -171 81 -131 -40 25 -122
104 -561 540 -201 200 -374 363 -383 363 -9 0 -16 -6 -16 -12 0 -7 -8 -3 -18
8 -16 20 -30 22 -176 28 -88 4 -164 10 -170 15 -6 5 -39 11 -74 13 -52 2 -61
1 -56 -12 3 -8 8 -21 11 -27 14 -35 -39 1 -117 77 -20 19 -58 55 -85 78 -28
24 -84 77 -126 118 -45 43 -85 74 -97 74 -12 0 -33 -16 -49 -37 -51 -65 -143
-208 -143 -221 0 -6 -7 -12 -15 -12 -10 0 -15 11 -15 35 0 26 -4 35 -16 35 -9
0 -24 8 -33 19 -9 10 -25 20 -36 22 -94 18 127 387 351 586 67 59 228 183 238
183 3 0 20 10 39 23 146 99 457 209 668 236 94 12 342 13 438 1z m-441 -1985
c507 -509 922 -932 922 -940 0 -20 -38 -43 -180 -111 -63 -31 -122 -59 -130
-64 -24 -12 -23 -37 1 -43 18 -5 20 -8 8 -19 -23 -23 -110 -55 -193 -72 -50
-10 -129 -16 -223 -16 -271 0 -529 72 -761 212 -219 133 -410 344 -336 372 21
8 13 30 -45 130 -111 192 -167 334 -202 518 -18 97 -21 135 -16 273 8 223 49
389 143 578 44 88 57 106 79 107 6 0 425 -416 933 -925z"/>
<path d="M1786 3319 c-33 -5 -86 -16 -118 -24 -33 -8 -72 -15 -88 -15 -38 0
-116 -36 -135 -63 -19 -28 -19 -67 1 -95 18 -26 34 -21 34 12 0 12 5 27 11 33
6 6 16 21 23 34 6 12 17 24 24 27 17 5 15 -37 -2 -44 -10 -4 -15 -20 -14 -45
0 -21 -5 -46 -12 -54 -7 -8 -10 -22 -6 -30 4 -11 -1 -15 -19 -15 -41 0 -33
-42 15 -83 l40 -34 153 -7 c224 -11 488 -12 494 -3 3 4 11 3 18 -3 9 -7 21 -7
39 0 16 6 142 11 299 11 150 1 304 5 342 9 60 6 50 7 -71 8 -112 2 -144 5
-154 17 -7 8 -27 15 -44 15 -40 0 -53 9 -57 40 -3 19 -10 25 -27 24 -18 -1
-22 4 -19 18 3 10 1 21 -4 24 -5 3 -9 27 -9 54 0 33 -5 50 -15 54 -18 7 -21
50 -2 44 6 -3 17 -14 22 -25 6 -12 16 -27 22 -34 5 -8 13 -27 17 -44 l8 -30
19 24 c32 40 25 77 -21 106 -21 13 -56 29 -77 34 -21 5 -67 17 -103 26 -166
42 -425 57 -584 34z m548 -164 c73 -15 96 -24 125 -50 l35 -33 -25 -48 c-20
-39 -31 -50 -54 -52 -15 -2 -39 -11 -52 -19 -18 -12 -40 -15 -93 -10 -38 3
-78 11 -89 16 -11 7 -83 11 -171 11 -88 0 -160 -4 -171 -11 -11 -5 -51 -13
-89 -16 -53 -5 -75 -2 -93 10 -13 8 -37 17 -52 19 -23 2 -34 13 -54 51 l-24
48 28 30 c32 32 64 43 193 64 122 20 465 14 586 -10z"/>
<path d="M1873 2822 c-80 -3 -77 0 -88 -89 l-7 -53 164 -166 c334 -341 1180
-1179 1192 -1182 11 -2 55 78 97 173 15 36 47 139 66 215 15 61 18 115 18 285
0 192 -2 217 -23 285 -34 110 -43 130 -54 123 -13 -7 -266 -14 -638 -16 -359
-3 -339 -14 -354 208 -8 106 -16 184 -22 205 -3 12 -28 15 -141 15 -76 0 -170
-1 -210 -3z"/>
<path d="M1740 2631 c0 -5 5 -13 10 -16 6 -3 10 -2 10 4 0 5 -4 13 -10 16 -5
3 -10 2 -10 -4z"/>
<path d="M2500 1871 c0 -5 5 -13 10 -16 6 -3 10 -2 10 4 0 5 -4 13 -10 16 -5
3 -10 2 -10 -4z"/>
<path d="M731 2396 c-38 -51 -55 -130 -72 -324 -18 -207 20 -410 115 -623 29
-64 79 -156 111 -205 71 -107 241 -280 344 -349 l73 -50 652 -3 c625 -3 716
-1 716 17 0 4 -84 92 -187 195 l-188 188 -7 -84 c-11 -133 -28 -168 -103 -216
-37 -25 -48 -26 -165 -27 -146 0 -167 5 -215 47 -61 53 -68 76 -73 250 -4 142
-6 157 -23 161 -13 4 -19 14 -19 34 0 52 3 52 198 55 l183 3 -363 361 c-321
318 -430 425 -570 553 -31 28 -40 32 -52 22 -8 -7 -21 -9 -28 -5 -19 12 -318
12 -327 0z"/>
</g>
</svg>
